<svg xmlns="http://www.w3.org/2000/svg" width="40" height="40" viewBox="0 0 40 40" fill="none">
  <path d="M20.0001 5C18.1667 5 16.6667 6.5 16.6667 8.33333C16.6667 10.1667 18.1667 11.6667 20.0001 11.6667C21.8334 11.6667 23.3334 10.1667 23.3334 8.33333C23.3334 6.5 21.8334 5 20.0001 5ZM20.0001 28.3333C18.1667 28.3333 16.6667 29.8333 16.6667 31.6667C16.6667 33.5 18.1667 35 20.0001 35C21.8334 35 23.3334 33.5 23.3334 31.6667C23.3334 29.8333 21.8334 28.3333 20.0001 28.3333ZM20.0001 16.6667C18.1667 16.6667 16.6667 18.1667 16.6667 20C16.6667 21.8333 18.1667 23.3333 20.0001 23.3333C21.8334 23.3333 23.3334 21.8333 23.3334 20C23.3334 18.1667 21.8334 16.6667 20.0001 16.6667Z" fill="#A0A0A0"/>
</svg>